<?xml version="1.0" encoding="utf-8"?>
<!-- Generator: Adobe Illustrator 24.0.2, SVG Export Plug-In . SVG Version: 6.00 Build 0)  -->
<svg version="1.1" id="Layer_1" xmlns="http://www.w3.org/2000/svg" xmlns:xlink="http://www.w3.org/1999/xlink" x="0px" y="0px"
	 width="30px" height="30px" viewBox="0 0 30 30" style="enable-background:new 0 0 30 30;" xml:space="preserve">
<style type="text/css">
	.st0{fill:none;}
	.st1{fill:#FFFFFF;}
</style>
<rect class="st0" width="30" height="30"/>
<path class="st1" d="M14.1,7.9V6.5c-0.2-0.1-0.3-0.1-0.5-0.2c-1.2-0.7-1.7-2.2-1.2-3.5c0.1-0.3,0.3-0.7,0.6-0.9
	c0.3-0.3,0.6-0.5,0.9-0.6C14.3,1.1,14.7,1,15,1c1.1,0,2.1,0.7,2.6,1.8c0.3,0.7,0.3,1.5,0,2.2c-0.1,0.3-0.3,0.7-0.6,0.9l0,0
	c-0.2,0.2-0.3,0.3-0.5,0.4c-0.1,0.1-0.3,0.2-0.5,0.2v1.3h6.5c1.9,0,3.5,1.6,3.5,3.6V12h1.2c1,0,1.8,0.8,1.8,1.9v4.3
	c0,1-0.8,1.9-1.8,1.9H26v0.5c0,2-1.6,3.6-3.5,3.6h-8.9l-5.3,4.7C8,29.1,7.6,29,7.4,28.8c0,0,0,0,0,0c-0.1-0.1-0.2-0.3-0.1-0.4
	l0.3-4.2h0c-1.9,0-3.5-1.6-3.5-3.6V20H2.8c-1,0-1.8-0.8-1.8-1.9v-4.3c0-1,0.8-1.9,1.8-1.9H4v-0.5c0-2,1.6-3.6,3.5-3.6H14.1z
	 M19.9,12.1c1.2,0,2.1,1,2.1,2.2s-1,2.2-2.1,2.2s-2.1-1-2.1-2.2S18.7,12.1,19.9,12.1L19.9,12.1z M10.1,12.1c1.2,0,2.1,1,2.1,2.2
	s-1,2.2-2.1,2.2S8,15.5,8,14.3S9,12.1,10.1,12.1L10.1,12.1z M11.6,19.5C11.6,19.4,11.5,19.4,11.6,19.5c-0.2-0.2-0.2-0.3-0.2-0.4
	c0-0.1,0-0.2,0.1-0.3c0,0,0.1-0.1,0.1-0.1c0.3-0.2,0.6-0.2,0.9,0c0.4,0.3,0.8,0.6,1.3,0.8c0.4,0.2,0.8,0.2,1.2,0.2
	c0.4,0,0.9-0.1,1.3-0.3c0.5-0.2,0.9-0.4,1.3-0.8c0.3-0.2,0.6-0.2,0.9,0c0,0,0.1,0.1,0.1,0.1c0.1,0.1,0.1,0.2,0.1,0.3
	c0,0.1-0.1,0.2-0.1,0.3c0,0-0.1,0.1-0.1,0.1c-0.5,0.4-1.1,0.7-1.7,0.9c-0.5,0.2-1.1,0.3-1.7,0.3c-0.6,0-1.2-0.1-1.7-0.3
	C12.7,20.2,12.1,19.9,11.6,19.5L11.6,19.5L11.6,19.5z M22.5,9.1h-15c-1.3,0-2.3,1.1-2.3,2.4v9c0,1.3,1,2.4,2.3,2.4h0.7
	c0.3,0,0.6,0.3,0.5,0.6L8.6,27l4.4-3.9c0.1-0.1,0.3-0.2,0.4-0.2h9.1c1.3,0,2.3-1.1,2.3-2.4v-9C24.8,10.1,23.8,9.1,22.5,9.1z"/>
</svg>
